<mxfile host="Electron" agent="Mozilla/5.0 (X11; Linux x86_64) AppleWebKit/537.36 (KHTML, like Gecko) draw.io/24.7.8 Chrome/128.0.6613.36 Electron/32.0.1 Safari/537.36" version="24.7.8">
  <diagram name="Page-1" id="okQUsLcCIn6qNMJXYvbM">
    <mxGraphModel dx="7130" dy="1203" grid="1" gridSize="10" guides="1" tooltips="1" connect="1" arrows="1" fold="1" page="1" pageScale="1" pageWidth="850" pageHeight="1100" math="0" shadow="0">
      <root>
        <mxCell id="0" />
        <mxCell id="1" parent="0" />
        <mxCell id="Cx0IqI09Y8lKUOxxlhVQ-1" value="&lt;font style=&quot;&quot;&gt;&lt;font size=&quot;1&quot; color=&quot;#ff8000&quot;&gt;&lt;b style=&quot;font-size: 24px;&quot;&gt;(0) Choose a StandbyController, will promote it to an ActiveController&lt;/b&gt;&lt;/font&gt;&lt;br&gt;&lt;/font&gt;" style="text;html=1;align=center;verticalAlign=middle;whiteSpace=wrap;rounded=0;" parent="1" vertex="1">
          <mxGeometry x="-2490" y="970" width="390" height="40" as="geometry" />
        </mxCell>
        <mxCell id="Cx0IqI09Y8lKUOxxlhVQ-2" value="" style="endArrow=classic;html=1;rounded=0;exitX=0;exitY=0.5;exitDx=0;exitDy=0;entryX=1;entryY=0.5;entryDx=0;entryDy=0;strokeColor=#ff8000;" parent="1" edge="1">
          <mxGeometry width="50" height="50" relative="1" as="geometry">
            <mxPoint x="-2690" y="290" as="sourcePoint" />
            <mxPoint x="-2630" y="290" as="targetPoint" />
          </mxGeometry>
        </mxCell>
        <mxCell id="ML2cVZePJlJrn_aZk8Cd-167" value="&lt;font style=&quot;font-size: 20px;&quot; color=&quot;#ff8000&quot;&gt;(1)&lt;/font&gt;" style="edgeLabel;html=1;align=center;verticalAlign=middle;resizable=0;points=[];" parent="Cx0IqI09Y8lKUOxxlhVQ-2" vertex="1" connectable="0">
          <mxGeometry x="-0.2" y="-1" relative="1" as="geometry">
            <mxPoint as="offset" />
          </mxGeometry>
        </mxCell>
        <mxCell id="ML2cVZePJlJrn_aZk8Cd-27" value="&lt;font style=&quot;font-size: 36px;&quot;&gt;&lt;i&gt;&lt;strike&gt;Standby&lt;/strike&gt;&lt;/i&gt;&amp;nbsp;&lt;b&gt;&lt;u&gt;Active&lt;/u&gt;&lt;/b&gt; Controller&lt;/font&gt;" style="rounded=1;whiteSpace=wrap;html=1;verticalAlign=bottom;" parent="1" vertex="1">
          <mxGeometry x="-3000" y="320" width="780" height="420" as="geometry" />
        </mxCell>
        <mxCell id="ML2cVZePJlJrn_aZk8Cd-28" value="" style="endArrow=classic;html=1;rounded=0;strokeWidth=5;strokeColor=#f00000;exitX=1;exitY=1;exitDx=0;exitDy=0;entryX=1;entryY=0;entryDx=0;entryDy=0;" parent="1" edge="1">
          <mxGeometry width="50" height="50" relative="1" as="geometry">
            <mxPoint x="-2690" y="380" as="sourcePoint" />
            <mxPoint x="-2690" y="260" as="targetPoint" />
          </mxGeometry>
        </mxCell>
        <mxCell id="ML2cVZePJlJrn_aZk8Cd-29" value="" style="endArrow=classic;html=1;rounded=0;strokeWidth=5;strokeColor=#808080;exitX=0.5;exitY=0;exitDx=0;exitDy=0;entryX=0.5;entryY=1;entryDx=0;entryDy=0;" parent="1" source="ML2cVZePJlJrn_aZk8Cd-30" target="ML2cVZePJlJrn_aZk8Cd-31" edge="1">
          <mxGeometry width="50" height="50" relative="1" as="geometry">
            <mxPoint x="-2440" y="460" as="sourcePoint" />
            <mxPoint x="-2390" y="410" as="targetPoint" />
          </mxGeometry>
        </mxCell>
        <mxCell id="ML2cVZePJlJrn_aZk8Cd-30" value="&lt;font style=&quot;font-size: 24px;&quot;&gt;&lt;strike&gt;&lt;i&gt;error&lt;/i&gt;&lt;/strike&gt;&amp;nbsp;&lt;b&gt;&lt;u&gt;raid0&lt;/u&gt;&lt;/b&gt;&lt;/font&gt;" style="rounded=0;whiteSpace=wrap;html=1;" parent="1" vertex="1">
          <mxGeometry x="-2750" y="500" width="240" height="60" as="geometry" />
        </mxCell>
        <mxCell id="ML2cVZePJlJrn_aZk8Cd-31" value="&lt;font style=&quot;font-size: 24px;&quot;&gt;nvmeof target&lt;br&gt;&lt;/font&gt;" style="rounded=0;whiteSpace=wrap;html=1;" parent="1" vertex="1">
          <mxGeometry x="-2750" y="380" width="240" height="60" as="geometry" />
        </mxCell>
        <mxCell id="ML2cVZePJlJrn_aZk8Cd-32" value="" style="endArrow=classic;html=1;rounded=0;strokeWidth=5;strokeColor=#0000f0;entryX=0.25;entryY=0;entryDx=0;entryDy=0;exitX=0.25;exitY=1;exitDx=0;exitDy=0;" parent="1" edge="1">
          <mxGeometry width="50" height="50" relative="1" as="geometry">
            <mxPoint x="-2945" y="800" as="sourcePoint" />
            <mxPoint x="-2945" y="680" as="targetPoint" />
          </mxGeometry>
        </mxCell>
        <mxCell id="ML2cVZePJlJrn_aZk8Cd-33" value="&lt;font style=&quot;font-size: 24px;&quot;&gt;&lt;b&gt;&lt;u&gt;Leg&lt;/u&gt;&lt;/b&gt;&lt;/font&gt;" style="rounded=1;whiteSpace=wrap;html=1;" parent="1" vertex="1">
          <mxGeometry x="-2960" y="620" width="120" height="60" as="geometry" />
        </mxCell>
        <mxCell id="ML2cVZePJlJrn_aZk8Cd-34" value="&lt;font style=&quot;font-size: 24px;&quot;&gt;&lt;b&gt;&lt;u&gt;Remote&lt;br&gt;Leg&lt;/u&gt;&lt;/b&gt;&lt;/font&gt;" style="rounded=0;whiteSpace=wrap;html=1;" parent="1" vertex="1">
          <mxGeometry x="-2780" y="620" width="120" height="60" as="geometry" />
        </mxCell>
        <mxCell id="ML2cVZePJlJrn_aZk8Cd-35" value="" style="endArrow=classic;html=1;rounded=0;strokeWidth=5;strokeColor=#808080;exitX=0.5;exitY=0;exitDx=0;exitDy=0;entryX=0.5;entryY=1;entryDx=0;entryDy=0;" parent="1" source="ML2cVZePJlJrn_aZk8Cd-33" target="ML2cVZePJlJrn_aZk8Cd-30" edge="1">
          <mxGeometry width="50" height="50" relative="1" as="geometry">
            <mxPoint x="-1960" y="270" as="sourcePoint" />
            <mxPoint x="-2630" y="560" as="targetPoint" />
          </mxGeometry>
        </mxCell>
        <mxCell id="ML2cVZePJlJrn_aZk8Cd-36" value="" style="endArrow=classic;html=1;rounded=0;strokeWidth=5;strokeColor=#808080;exitX=0.5;exitY=0;exitDx=0;exitDy=0;entryX=0.5;entryY=1;entryDx=0;entryDy=0;" parent="1" source="ML2cVZePJlJrn_aZk8Cd-34" target="ML2cVZePJlJrn_aZk8Cd-30" edge="1">
          <mxGeometry width="50" height="50" relative="1" as="geometry">
            <mxPoint x="-2620" y="480" as="sourcePoint" />
            <mxPoint x="-2630" y="560" as="targetPoint" />
          </mxGeometry>
        </mxCell>
        <mxCell id="ML2cVZePJlJrn_aZk8Cd-37" value="" style="endArrow=classic;html=1;rounded=0;strokeWidth=5;strokeColor=#f000f0;entryX=1;entryY=0;entryDx=0;entryDy=0;exitX=0;exitY=1;exitDx=0;exitDy=0;" parent="1" edge="1">
          <mxGeometry width="50" height="50" relative="1" as="geometry">
            <mxPoint x="-2540" y="800" as="sourcePoint" />
            <mxPoint x="-2540" y="680" as="targetPoint" />
          </mxGeometry>
        </mxCell>
        <mxCell id="ML2cVZePJlJrn_aZk8Cd-38" value="&lt;font style=&quot;font-size: 24px;&quot;&gt;&lt;b&gt;&lt;u&gt;Leg&lt;/u&gt;&lt;/b&gt;&lt;br&gt;&lt;/font&gt;" style="rounded=1;whiteSpace=wrap;html=1;" parent="1" vertex="1">
          <mxGeometry x="-2420" y="620" width="120" height="60" as="geometry" />
        </mxCell>
        <mxCell id="ML2cVZePJlJrn_aZk8Cd-39" value="&lt;font style=&quot;font-size: 24px;&quot;&gt;&lt;b&gt;&lt;u&gt;Remote&lt;br&gt;Leg&lt;/u&gt;&lt;/b&gt;&lt;br&gt;&lt;/font&gt;" style="rounded=0;whiteSpace=wrap;html=1;" parent="1" vertex="1">
          <mxGeometry x="-2600" y="620" width="120" height="60" as="geometry" />
        </mxCell>
        <mxCell id="ML2cVZePJlJrn_aZk8Cd-40" value="" style="endArrow=classic;html=1;rounded=0;strokeWidth=5;strokeColor=#808080;exitX=0.5;exitY=0;exitDx=0;exitDy=0;entryX=0.5;entryY=1;entryDx=0;entryDy=0;" parent="1" source="ML2cVZePJlJrn_aZk8Cd-38" target="ML2cVZePJlJrn_aZk8Cd-30" edge="1">
          <mxGeometry width="50" height="50" relative="1" as="geometry">
            <mxPoint x="-2430" y="500" as="sourcePoint" />
            <mxPoint x="-2630" y="560" as="targetPoint" />
          </mxGeometry>
        </mxCell>
        <mxCell id="ML2cVZePJlJrn_aZk8Cd-41" value="" style="endArrow=classic;html=1;rounded=0;strokeWidth=5;strokeColor=#808080;exitX=0.5;exitY=0;exitDx=0;exitDy=0;entryX=0.5;entryY=1;entryDx=0;entryDy=0;" parent="1" source="ML2cVZePJlJrn_aZk8Cd-39" target="ML2cVZePJlJrn_aZk8Cd-30" edge="1">
          <mxGeometry width="50" height="50" relative="1" as="geometry">
            <mxPoint x="-2430" y="510" as="sourcePoint" />
            <mxPoint x="-2630" y="560" as="targetPoint" />
          </mxGeometry>
        </mxCell>
        <mxCell id="ML2cVZePJlJrn_aZk8Cd-42" value="" style="endArrow=classic;html=1;rounded=0;strokeWidth=5;strokeColor=#0000f0;entryX=0.75;entryY=0;entryDx=0;entryDy=0;exitX=0.75;exitY=1;exitDx=0;exitDy=0;" parent="1" edge="1">
          <mxGeometry width="50" height="50" relative="1" as="geometry">
            <mxPoint x="-2915" y="800" as="sourcePoint" />
            <mxPoint x="-2915" y="680" as="targetPoint" />
          </mxGeometry>
        </mxCell>
        <mxCell id="ML2cVZePJlJrn_aZk8Cd-43" value="" style="endArrow=classic;html=1;rounded=0;strokeWidth=5;strokeColor=#0000f0;entryX=0.75;entryY=0;entryDx=0;entryDy=0;exitX=0.75;exitY=1;exitDx=0;exitDy=0;" parent="1" edge="1">
          <mxGeometry width="50" height="50" relative="1" as="geometry">
            <mxPoint x="-2375" y="800" as="sourcePoint" />
            <mxPoint x="-2375" y="680" as="targetPoint" />
          </mxGeometry>
        </mxCell>
        <mxCell id="ML2cVZePJlJrn_aZk8Cd-44" value="" style="endArrow=classic;html=1;rounded=0;strokeWidth=5;strokeColor=#0000f0;entryX=0.25;entryY=0;entryDx=0;entryDy=0;exitX=0.25;exitY=1;exitDx=0;exitDy=0;" parent="1" edge="1">
          <mxGeometry width="50" height="50" relative="1" as="geometry">
            <mxPoint x="-2405" y="800" as="sourcePoint" />
            <mxPoint x="-2405" y="680" as="targetPoint" />
          </mxGeometry>
        </mxCell>
        <mxCell id="ML2cVZePJlJrn_aZk8Cd-45" value="" style="endArrow=classic;html=1;rounded=0;strokeWidth=5;strokeColor=#0000f0;entryX=0.25;entryY=0;entryDx=0;entryDy=0;exitX=0.25;exitY=1;exitDx=0;exitDy=0;" parent="1" edge="1">
          <mxGeometry width="50" height="50" relative="1" as="geometry">
            <mxPoint x="-2885" y="800" as="sourcePoint" />
            <mxPoint x="-2885" y="680" as="targetPoint" />
          </mxGeometry>
        </mxCell>
        <mxCell id="ML2cVZePJlJrn_aZk8Cd-46" value="" style="endArrow=classic;html=1;rounded=0;strokeWidth=5;strokeColor=#0000f0;entryX=0.75;entryY=0;entryDx=0;entryDy=0;exitX=0.75;exitY=1;exitDx=0;exitDy=0;" parent="1" edge="1">
          <mxGeometry width="50" height="50" relative="1" as="geometry">
            <mxPoint x="-2855" y="800" as="sourcePoint" />
            <mxPoint x="-2855" y="680" as="targetPoint" />
          </mxGeometry>
        </mxCell>
        <mxCell id="ML2cVZePJlJrn_aZk8Cd-47" value="" style="endArrow=classic;html=1;rounded=0;strokeWidth=5;strokeColor=#0000f0;entryX=0.75;entryY=0;entryDx=0;entryDy=0;exitX=0.75;exitY=1;exitDx=0;exitDy=0;" parent="1" edge="1">
          <mxGeometry width="50" height="50" relative="1" as="geometry">
            <mxPoint x="-2315" y="800" as="sourcePoint" />
            <mxPoint x="-2315" y="680" as="targetPoint" />
          </mxGeometry>
        </mxCell>
        <mxCell id="ML2cVZePJlJrn_aZk8Cd-48" value="" style="endArrow=classic;html=1;rounded=0;strokeWidth=5;strokeColor=#0000f0;entryX=0.25;entryY=0;entryDx=0;entryDy=0;exitX=0.25;exitY=1;exitDx=0;exitDy=0;" parent="1" edge="1">
          <mxGeometry width="50" height="50" relative="1" as="geometry">
            <mxPoint x="-2345" y="800" as="sourcePoint" />
            <mxPoint x="-2345" y="680" as="targetPoint" />
          </mxGeometry>
        </mxCell>
        <mxCell id="ML2cVZePJlJrn_aZk8Cd-49" value="" style="endArrow=classic;html=1;rounded=0;strokeWidth=5;strokeColor=#f000f0;entryX=0.5;entryY=0;entryDx=0;entryDy=0;exitX=0.5;exitY=1;exitDx=0;exitDy=0;" parent="1" edge="1">
          <mxGeometry width="50" height="50" relative="1" as="geometry">
            <mxPoint x="-2720" y="800" as="sourcePoint" />
            <mxPoint x="-2720" y="680" as="targetPoint" />
          </mxGeometry>
        </mxCell>
        <mxCell id="EK6KpNQJIU4OniFnHXBM-6" value="" style="endArrow=classic;html=1;rounded=0;strokeWidth=5;strokeColor=#ffd700;exitX=0.5;exitY=0;exitDx=0;exitDy=0;entryX=0.5;entryY=0;entryDx=0;entryDy=0;" parent="1" source="ML2cVZePJlJrn_aZk8Cd-31" edge="1">
          <mxGeometry width="50" height="50" relative="1" as="geometry">
            <mxPoint x="-2220" y="210" as="sourcePoint" />
            <mxPoint x="-2630" y="260" as="targetPoint" />
          </mxGeometry>
        </mxCell>
        <mxCell id="EK6KpNQJIU4OniFnHXBM-1" value="" style="endArrow=classic;html=1;rounded=0;strokeWidth=5;strokeColor=#00c800;exitX=0.75;exitY=0;exitDx=0;exitDy=0;entryX=0.5;entryY=0;entryDx=0;entryDy=0;" parent="1" source="ML2cVZePJlJrn_aZk8Cd-31" edge="1">
          <mxGeometry width="50" height="50" relative="1" as="geometry">
            <mxPoint x="-2410" y="240" as="sourcePoint" />
            <mxPoint x="-2570" y="260" as="targetPoint" />
          </mxGeometry>
        </mxCell>
        <mxCell id="ML2cVZePJlJrn_aZk8Cd-62" value="&lt;font style=&quot;font-size: 36px;&quot;&gt;All Logical Disks&lt;/font&gt;" style="rounded=1;whiteSpace=wrap;html=1;verticalAlign=bottom;container=0;" parent="1" vertex="1">
          <mxGeometry x="-2190" y="410" width="400" height="300" as="geometry" />
        </mxCell>
        <mxCell id="ML2cVZePJlJrn_aZk8Cd-63" value="&lt;font style=&quot;font-size: 24px;&quot;&gt;linear&lt;/font&gt;" style="rounded=0;whiteSpace=wrap;html=1;container=0;" parent="1" vertex="1">
          <mxGeometry x="-2040" y="590" width="120" height="60" as="geometry" />
        </mxCell>
        <mxCell id="ML2cVZePJlJrn_aZk8Cd-64" value="&lt;font style=&quot;font-size: 24px;&quot;&gt;&lt;strike&gt;&lt;i&gt;nvme&lt;br&gt;target&lt;/i&gt;&lt;/strike&gt;&lt;br&gt;&lt;/font&gt;" style="rounded=0;whiteSpace=wrap;html=1;container=0;" parent="1" vertex="1">
          <mxGeometry x="-2130" y="470" width="120" height="60" as="geometry" />
        </mxCell>
        <mxCell id="ML2cVZePJlJrn_aZk8Cd-65" value="" style="endArrow=classic;html=1;rounded=0;strokeWidth=5;strokeColor=#808080;exitX=0.5;exitY=0;exitDx=0;exitDy=0;entryX=0.5;entryY=1;entryDx=0;entryDy=0;dashed=1;" parent="1" source="ML2cVZePJlJrn_aZk8Cd-63" target="ML2cVZePJlJrn_aZk8Cd-64" edge="1">
          <mxGeometry width="50" height="50" relative="1" as="geometry">
            <mxPoint x="-2480" y="340" as="sourcePoint" />
            <mxPoint x="-2430" y="290" as="targetPoint" />
          </mxGeometry>
        </mxCell>
        <mxCell id="ML2cVZePJlJrn_aZk8Cd-67" value="&lt;font style=&quot;font-size: 24px;&quot;&gt;&lt;b&gt;&lt;u&gt;nvme&lt;br&gt;target&lt;/u&gt;&lt;/b&gt;&lt;br&gt;&lt;/font&gt;" style="rounded=0;whiteSpace=wrap;html=1;container=0;" parent="1" vertex="1">
          <mxGeometry x="-1950" y="470" width="120" height="60" as="geometry" />
        </mxCell>
        <mxCell id="ML2cVZePJlJrn_aZk8Cd-66" value="" style="endArrow=classic;html=1;rounded=0;strokeWidth=5;strokeColor=#0000f0;exitX=0.5;exitY=0;exitDx=0;exitDy=0;entryX=0;entryY=0;entryDx=0;entryDy=0;dashed=1;" parent="1" source="ML2cVZePJlJrn_aZk8Cd-64" edge="1">
          <mxGeometry width="50" height="50" relative="1" as="geometry">
            <mxPoint x="-2050" y="220" as="sourcePoint" />
            <mxPoint x="-2070" y="350" as="targetPoint" />
          </mxGeometry>
        </mxCell>
        <mxCell id="ML2cVZePJlJrn_aZk8Cd-68" value="" style="endArrow=classic;html=1;rounded=0;strokeWidth=5;strokeColor=#808080;exitX=0.5;exitY=0;exitDx=0;exitDy=0;entryX=0.558;entryY=1.017;entryDx=0;entryDy=0;entryPerimeter=0;" parent="1" source="ML2cVZePJlJrn_aZk8Cd-63" target="ML2cVZePJlJrn_aZk8Cd-67" edge="1">
          <mxGeometry width="50" height="50" relative="1" as="geometry">
            <mxPoint x="-1650" y="570" as="sourcePoint" />
            <mxPoint x="-1600" y="520" as="targetPoint" />
          </mxGeometry>
        </mxCell>
        <mxCell id="EK6KpNQJIU4OniFnHXBM-8" value="" style="endArrow=classic;html=1;rounded=0;strokeWidth=5;strokeColor=#0000f0;exitX=0;exitY=1;exitDx=0;exitDy=0;entryX=0;entryY=0;entryDx=0;entryDy=0;" parent="1" edge="1">
          <mxGeometry width="50" height="50" relative="1" as="geometry">
            <mxPoint x="-1890" y="470" as="sourcePoint" />
            <mxPoint x="-1890" y="350" as="targetPoint" />
          </mxGeometry>
        </mxCell>
        <mxCell id="ML2cVZePJlJrn_aZk8Cd-72" value="&lt;font style=&quot;&quot;&gt;&lt;font size=&quot;1&quot; color=&quot;#ff8000&quot;&gt;&lt;b style=&quot;font-size: 24px;&quot;&gt;(1) Switch the ANA group from Inaccessible to Change&lt;/b&gt;&lt;/font&gt;&lt;br&gt;&lt;/font&gt;" style="text;html=1;align=center;verticalAlign=middle;whiteSpace=wrap;rounded=0;" parent="1" vertex="1">
          <mxGeometry x="-3030" y="160" width="360" height="40" as="geometry" />
        </mxCell>
        <mxCell id="ML2cVZePJlJrn_aZk8Cd-73" value="&lt;font style=&quot;&quot;&gt;&lt;font size=&quot;1&quot; color=&quot;#ff8000&quot;&gt;&lt;b style=&quot;font-size: 24px;&quot;&gt;(2) Delete the nvmeof target from all LogicalDisks to the old ActiveController&lt;/b&gt;&lt;/font&gt;&lt;br&gt;&lt;/font&gt;" style="text;html=1;align=center;verticalAlign=middle;whiteSpace=wrap;rounded=0;" parent="1" vertex="1">
          <mxGeometry x="-2270" y="250" width="360" height="40" as="geometry" />
        </mxCell>
        <mxCell id="ML2cVZePJlJrn_aZk8Cd-74" value="" style="endArrow=classic;html=1;rounded=0;exitX=0.5;exitY=1;exitDx=0;exitDy=0;entryX=0.25;entryY=0;entryDx=0;entryDy=0;strokeColor=#ff8000;" parent="1" source="ML2cVZePJlJrn_aZk8Cd-73" target="ML2cVZePJlJrn_aZk8Cd-64" edge="1">
          <mxGeometry width="50" height="50" relative="1" as="geometry">
            <mxPoint x="-2095" y="464" as="sourcePoint" />
            <mxPoint x="-2000" y="550" as="targetPoint" />
          </mxGeometry>
        </mxCell>
        <mxCell id="ML2cVZePJlJrn_aZk8Cd-76" value="&lt;font style=&quot;&quot;&gt;&lt;font size=&quot;1&quot; color=&quot;#ff8000&quot;&gt;&lt;b style=&quot;font-size: 24px;&quot;&gt;(3) Suspend the dm-linear device and resume it to flush all pending IOs&lt;/b&gt;&lt;/font&gt;&lt;br&gt;&lt;/font&gt;" style="text;html=1;align=center;verticalAlign=middle;whiteSpace=wrap;rounded=0;" parent="1" vertex="1">
          <mxGeometry x="-2280" y="800" width="360" height="40" as="geometry" />
        </mxCell>
        <mxCell id="ML2cVZePJlJrn_aZk8Cd-78" value="" style="endArrow=classic;html=1;rounded=0;exitX=0.5;exitY=0;exitDx=0;exitDy=0;entryX=0.25;entryY=1;entryDx=0;entryDy=0;strokeColor=#ff8000;" parent="1" source="ML2cVZePJlJrn_aZk8Cd-76" target="ML2cVZePJlJrn_aZk8Cd-63" edge="1">
          <mxGeometry width="50" height="50" relative="1" as="geometry">
            <mxPoint x="-2110" y="580" as="sourcePoint" />
            <mxPoint x="-2015" y="666" as="targetPoint" />
          </mxGeometry>
        </mxCell>
        <mxCell id="ML2cVZePJlJrn_aZk8Cd-79" value="&lt;font style=&quot;&quot;&gt;&lt;font size=&quot;1&quot; color=&quot;#ff8000&quot;&gt;&lt;b style=&quot;font-size: 24px;&quot;&gt;(4) Create a new nvmeof &lt;br&gt;target and export it to the &lt;br&gt;new ActiveController&lt;/b&gt;&lt;/font&gt;&lt;br&gt;&lt;/font&gt;" style="text;html=1;align=center;verticalAlign=middle;whiteSpace=wrap;rounded=0;" parent="1" vertex="1">
          <mxGeometry x="-2040" y="880" width="360" height="40" as="geometry" />
        </mxCell>
        <mxCell id="ML2cVZePJlJrn_aZk8Cd-80" value="" style="endArrow=classic;html=1;rounded=0;exitX=0.5;exitY=0;exitDx=0;exitDy=0;entryX=0.75;entryY=1;entryDx=0;entryDy=0;strokeColor=#ff8000;" parent="1" source="ML2cVZePJlJrn_aZk8Cd-79" target="ML2cVZePJlJrn_aZk8Cd-67" edge="1">
          <mxGeometry width="50" height="50" relative="1" as="geometry">
            <mxPoint x="-1890" y="240" as="sourcePoint" />
            <mxPoint x="-1795" y="326" as="targetPoint" />
          </mxGeometry>
        </mxCell>
        <mxCell id="ML2cVZePJlJrn_aZk8Cd-81" value="&lt;font style=&quot;&quot;&gt;&lt;font size=&quot;1&quot; color=&quot;#ff8000&quot;&gt;&lt;b style=&quot;font-size: 24px;&quot;&gt;(5) Remove nvmeof connections to the old Active Controller&lt;/b&gt;&lt;/font&gt;&lt;br&gt;&lt;/font&gt;" style="text;html=1;align=center;verticalAlign=middle;whiteSpace=wrap;rounded=0;" parent="1" vertex="1">
          <mxGeometry x="-3830" y="180" width="410" height="40" as="geometry" />
        </mxCell>
        <mxCell id="ML2cVZePJlJrn_aZk8Cd-82" value="&lt;font style=&quot;&quot;&gt;&lt;font size=&quot;1&quot; color=&quot;#ff8000&quot;&gt;&lt;b style=&quot;font-size: 24px;&quot;&gt;(7) Create nvmeof connections &lt;br&gt;to the new Active Controller&lt;/b&gt;&lt;/font&gt;&lt;br&gt;&lt;/font&gt;" style="text;html=1;align=center;verticalAlign=middle;whiteSpace=wrap;rounded=0;" parent="1" vertex="1">
          <mxGeometry x="-3440" y="180" width="420" height="40" as="geometry" />
        </mxCell>
        <mxCell id="ML2cVZePJlJrn_aZk8Cd-83" value="&lt;font style=&quot;&quot;&gt;&lt;font size=&quot;1&quot; color=&quot;#ff8000&quot;&gt;&lt;b style=&quot;font-size: 24px;&quot;&gt;(8) Connect to all Logical disks and all Remote Legs then export the Legs&lt;/b&gt;&lt;/font&gt;&lt;br&gt;&lt;/font&gt;" style="text;html=1;align=center;verticalAlign=middle;whiteSpace=wrap;rounded=0;" parent="1" vertex="1">
          <mxGeometry x="-2870" y="850" width="550" height="40" as="geometry" />
        </mxCell>
        <mxCell id="ML2cVZePJlJrn_aZk8Cd-84" value="&lt;font style=&quot;&quot;&gt;&lt;font size=&quot;1&quot; color=&quot;#ff8000&quot;&gt;&lt;b style=&quot;font-size: 24px;&quot;&gt;(9) replace the error device to raid0 device&lt;/b&gt;&lt;/font&gt;&lt;br&gt;&lt;/font&gt;" style="text;html=1;align=center;verticalAlign=middle;whiteSpace=wrap;rounded=0;" parent="1" vertex="1">
          <mxGeometry x="-2370" y="340" width="290" height="40" as="geometry" />
        </mxCell>
        <mxCell id="ML2cVZePJlJrn_aZk8Cd-85" value="&lt;font style=&quot;&quot;&gt;&lt;font size=&quot;1&quot; color=&quot;#ff8000&quot;&gt;&lt;b style=&quot;font-size: 24px;&quot;&gt;(11) Switch the nvmeof ANA group from Change to Optmized.&lt;/b&gt;&lt;/font&gt;&lt;br&gt;&lt;/font&gt;" style="text;html=1;align=center;verticalAlign=middle;whiteSpace=wrap;rounded=0;" parent="1" vertex="1">
          <mxGeometry x="-2620" y="170" width="380" height="40" as="geometry" />
        </mxCell>
        <mxCell id="ML2cVZePJlJrn_aZk8Cd-116" value="&lt;font style=&quot;font-size: 36px;&quot;&gt;All Other Active Controller&lt;/font&gt;" style="rounded=1;whiteSpace=wrap;html=1;verticalAlign=bottom;" parent="1" vertex="1">
          <mxGeometry x="-3810" y="320" width="780" height="420" as="geometry" />
        </mxCell>
        <mxCell id="ML2cVZePJlJrn_aZk8Cd-117" value="" style="endArrow=classic;html=1;rounded=0;strokeWidth=5;strokeColor=#00c800;exitX=0.5;exitY=0;exitDx=0;exitDy=0;entryX=0.5;entryY=0;entryDx=0;entryDy=0;" parent="1" source="ML2cVZePJlJrn_aZk8Cd-125" edge="1">
          <mxGeometry width="50" height="50" relative="1" as="geometry">
            <mxPoint x="-3350" y="260" as="sourcePoint" />
            <mxPoint x="-3420" y="260" as="targetPoint" />
          </mxGeometry>
        </mxCell>
        <mxCell id="ML2cVZePJlJrn_aZk8Cd-118" value="" style="endArrow=classic;html=1;rounded=0;strokeWidth=5;strokeColor=#f000f0;exitX=0.75;exitY=0;exitDx=0;exitDy=0;entryX=0.75;entryY=0;entryDx=0;entryDy=0;dashed=1;" parent="1" source="ML2cVZePJlJrn_aZk8Cd-128" edge="1">
          <mxGeometry width="50" height="50" relative="1" as="geometry">
            <mxPoint x="-2810" y="650" as="sourcePoint" />
            <mxPoint x="-3120" y="260" as="targetPoint" />
          </mxGeometry>
        </mxCell>
        <mxCell id="ML2cVZePJlJrn_aZk8Cd-119" value="" style="endArrow=classic;html=1;rounded=0;strokeWidth=5;strokeColor=#0000f0;entryX=0.25;entryY=0;entryDx=0;entryDy=0;exitX=0.25;exitY=1;exitDx=0;exitDy=0;" parent="1" edge="1">
          <mxGeometry width="50" height="50" relative="1" as="geometry">
            <mxPoint x="-3735" y="800" as="sourcePoint" />
            <mxPoint x="-3735" y="680" as="targetPoint" />
          </mxGeometry>
        </mxCell>
        <mxCell id="ML2cVZePJlJrn_aZk8Cd-120" value="&lt;font style=&quot;font-size: 24px;&quot;&gt;raid0&lt;/font&gt;" style="rounded=0;whiteSpace=wrap;html=1;" parent="1" vertex="1">
          <mxGeometry x="-3480" y="500" width="120" height="60" as="geometry" />
        </mxCell>
        <mxCell id="ML2cVZePJlJrn_aZk8Cd-121" value="&lt;font style=&quot;font-size: 24px;&quot;&gt;Leg&lt;/font&gt;" style="rounded=1;whiteSpace=wrap;html=1;" parent="1" vertex="1">
          <mxGeometry x="-3750" y="620" width="120" height="60" as="geometry" />
        </mxCell>
        <mxCell id="ML2cVZePJlJrn_aZk8Cd-122" value="&lt;font style=&quot;font-size: 24px;&quot;&gt;Remote&lt;br&gt;Leg&lt;/font&gt;" style="rounded=0;whiteSpace=wrap;html=1;" parent="1" vertex="1">
          <mxGeometry x="-3570" y="620" width="120" height="60" as="geometry" />
        </mxCell>
        <mxCell id="ML2cVZePJlJrn_aZk8Cd-124" value="" style="endArrow=classic;html=1;rounded=0;strokeWidth=5;strokeColor=#808080;exitX=0.5;exitY=0;exitDx=0;exitDy=0;entryX=0.5;entryY=1;entryDx=0;entryDy=0;" parent="1" source="ML2cVZePJlJrn_aZk8Cd-122" target="ML2cVZePJlJrn_aZk8Cd-120" edge="1">
          <mxGeometry width="50" height="50" relative="1" as="geometry">
            <mxPoint x="-3410" y="480" as="sourcePoint" />
            <mxPoint x="-3360" y="430" as="targetPoint" />
          </mxGeometry>
        </mxCell>
        <mxCell id="ML2cVZePJlJrn_aZk8Cd-125" value="&lt;font style=&quot;font-size: 24px;&quot;&gt;nvmeof target&lt;/font&gt;" style="rounded=0;whiteSpace=wrap;html=1;" parent="1" vertex="1">
          <mxGeometry x="-3480" y="380" width="120" height="60" as="geometry" />
        </mxCell>
        <mxCell id="ML2cVZePJlJrn_aZk8Cd-126" value="" style="endArrow=classic;html=1;rounded=0;strokeWidth=5;strokeColor=#808080;exitX=0.5;exitY=0;exitDx=0;exitDy=0;entryX=0.5;entryY=1;entryDx=0;entryDy=0;" parent="1" source="ML2cVZePJlJrn_aZk8Cd-120" target="ML2cVZePJlJrn_aZk8Cd-125" edge="1">
          <mxGeometry width="50" height="50" relative="1" as="geometry">
            <mxPoint x="-3490" y="420" as="sourcePoint" />
            <mxPoint x="-3440" y="370" as="targetPoint" />
          </mxGeometry>
        </mxCell>
        <mxCell id="ML2cVZePJlJrn_aZk8Cd-127" value="" style="endArrow=classic;html=1;rounded=0;strokeWidth=5;strokeColor=#f000f0;entryX=0.25;entryY=1;entryDx=0;entryDy=0;exitX=0.25;exitY=1;exitDx=0;exitDy=0;" parent="1" target="ML2cVZePJlJrn_aZk8Cd-129" edge="1">
          <mxGeometry width="50" height="50" relative="1" as="geometry">
            <mxPoint x="-3360" y="800" as="sourcePoint" />
            <mxPoint x="-3330" y="680" as="targetPoint" />
          </mxGeometry>
        </mxCell>
        <mxCell id="ML2cVZePJlJrn_aZk8Cd-128" value="&lt;font style=&quot;font-size: 24px;&quot;&gt;Leg&lt;br&gt;&lt;/font&gt;" style="rounded=1;whiteSpace=wrap;html=1;" parent="1" vertex="1">
          <mxGeometry x="-3210" y="620" width="120" height="60" as="geometry" />
        </mxCell>
        <mxCell id="ML2cVZePJlJrn_aZk8Cd-129" value="&lt;font style=&quot;font-size: 24px;&quot;&gt;Remote&lt;br&gt;Leg&lt;br&gt;&lt;/font&gt;" style="rounded=0;whiteSpace=wrap;html=1;" parent="1" vertex="1">
          <mxGeometry x="-3390" y="620" width="120" height="60" as="geometry" />
        </mxCell>
        <mxCell id="ML2cVZePJlJrn_aZk8Cd-131" value="" style="endArrow=classic;html=1;rounded=0;strokeWidth=5;strokeColor=#808080;exitX=0.5;exitY=0;exitDx=0;exitDy=0;entryX=0.5;entryY=1;entryDx=0;entryDy=0;" parent="1" source="ML2cVZePJlJrn_aZk8Cd-129" target="ML2cVZePJlJrn_aZk8Cd-120" edge="1">
          <mxGeometry width="50" height="50" relative="1" as="geometry">
            <mxPoint x="-3220" y="510" as="sourcePoint" />
            <mxPoint x="-3170" y="460" as="targetPoint" />
          </mxGeometry>
        </mxCell>
        <mxCell id="ML2cVZePJlJrn_aZk8Cd-132" value="" style="endArrow=classic;html=1;rounded=0;strokeWidth=5;strokeColor=#0000f0;entryX=0.75;entryY=0;entryDx=0;entryDy=0;exitX=0.75;exitY=1;exitDx=0;exitDy=0;" parent="1" edge="1">
          <mxGeometry width="50" height="50" relative="1" as="geometry">
            <mxPoint x="-3705" y="800" as="sourcePoint" />
            <mxPoint x="-3705" y="680" as="targetPoint" />
          </mxGeometry>
        </mxCell>
        <mxCell id="ML2cVZePJlJrn_aZk8Cd-133" value="" style="endArrow=classic;html=1;rounded=0;strokeWidth=5;strokeColor=#0000f0;entryX=0.75;entryY=0;entryDx=0;entryDy=0;exitX=0.75;exitY=1;exitDx=0;exitDy=0;" parent="1" edge="1">
          <mxGeometry width="50" height="50" relative="1" as="geometry">
            <mxPoint x="-3165" y="800" as="sourcePoint" />
            <mxPoint x="-3165" y="680" as="targetPoint" />
          </mxGeometry>
        </mxCell>
        <mxCell id="ML2cVZePJlJrn_aZk8Cd-134" value="" style="endArrow=classic;html=1;rounded=0;strokeWidth=5;strokeColor=#0000f0;entryX=0.25;entryY=0;entryDx=0;entryDy=0;exitX=0.25;exitY=1;exitDx=0;exitDy=0;" parent="1" edge="1">
          <mxGeometry width="50" height="50" relative="1" as="geometry">
            <mxPoint x="-3195" y="800" as="sourcePoint" />
            <mxPoint x="-3195" y="680" as="targetPoint" />
          </mxGeometry>
        </mxCell>
        <mxCell id="ML2cVZePJlJrn_aZk8Cd-135" value="" style="endArrow=classic;html=1;rounded=0;strokeWidth=5;strokeColor=#0000f0;entryX=0.25;entryY=0;entryDx=0;entryDy=0;exitX=0.25;exitY=1;exitDx=0;exitDy=0;" parent="1" edge="1">
          <mxGeometry width="50" height="50" relative="1" as="geometry">
            <mxPoint x="-3675" y="800" as="sourcePoint" />
            <mxPoint x="-3675" y="680" as="targetPoint" />
          </mxGeometry>
        </mxCell>
        <mxCell id="ML2cVZePJlJrn_aZk8Cd-136" value="" style="endArrow=classic;html=1;rounded=0;strokeWidth=5;strokeColor=#0000f0;entryX=0.75;entryY=0;entryDx=0;entryDy=0;exitX=0.75;exitY=1;exitDx=0;exitDy=0;" parent="1" edge="1">
          <mxGeometry width="50" height="50" relative="1" as="geometry">
            <mxPoint x="-3645" y="800" as="sourcePoint" />
            <mxPoint x="-3645" y="680" as="targetPoint" />
          </mxGeometry>
        </mxCell>
        <mxCell id="ML2cVZePJlJrn_aZk8Cd-137" value="" style="endArrow=classic;html=1;rounded=0;strokeWidth=5;strokeColor=#0000f0;entryX=0.75;entryY=0;entryDx=0;entryDy=0;exitX=0.75;exitY=1;exitDx=0;exitDy=0;" parent="1" edge="1">
          <mxGeometry width="50" height="50" relative="1" as="geometry">
            <mxPoint x="-3105" y="800" as="sourcePoint" />
            <mxPoint x="-3105" y="680" as="targetPoint" />
          </mxGeometry>
        </mxCell>
        <mxCell id="ML2cVZePJlJrn_aZk8Cd-138" value="" style="endArrow=classic;html=1;rounded=0;strokeWidth=5;strokeColor=#0000f0;entryX=0.25;entryY=0;entryDx=0;entryDy=0;exitX=0.25;exitY=1;exitDx=0;exitDy=0;" parent="1" edge="1">
          <mxGeometry width="50" height="50" relative="1" as="geometry">
            <mxPoint x="-3135" y="800" as="sourcePoint" />
            <mxPoint x="-3135" y="680" as="targetPoint" />
          </mxGeometry>
        </mxCell>
        <mxCell id="ML2cVZePJlJrn_aZk8Cd-139" value="" style="endArrow=classic;html=1;rounded=0;strokeWidth=5;strokeColor=#f000f0;entryX=0.25;entryY=1;entryDx=0;entryDy=0;exitX=0.25;exitY=1;exitDx=0;exitDy=0;dashed=1;" parent="1" target="ML2cVZePJlJrn_aZk8Cd-122" edge="1">
          <mxGeometry width="50" height="50" relative="1" as="geometry">
            <mxPoint x="-3540" y="800" as="sourcePoint" />
            <mxPoint x="-3510" y="680" as="targetPoint" />
          </mxGeometry>
        </mxCell>
        <mxCell id="ML2cVZePJlJrn_aZk8Cd-140" value="" style="endArrow=classic;html=1;rounded=0;strokeWidth=5;strokeColor=#f000f0;exitX=0.5;exitY=0;exitDx=0;exitDy=0;entryX=0.5;entryY=0;entryDx=0;entryDy=0;dashed=1;" parent="1" edge="1">
          <mxGeometry width="50" height="50" relative="1" as="geometry">
            <mxPoint x="-3690" y="260" as="sourcePoint" />
            <mxPoint x="-3690" y="260" as="targetPoint" />
          </mxGeometry>
        </mxCell>
        <mxCell id="ML2cVZePJlJrn_aZk8Cd-142" value="" style="endArrow=classic;html=1;rounded=0;strokeWidth=5;strokeColor=#f000f0;exitX=0.25;exitY=0;exitDx=0;exitDy=0;entryX=0.25;entryY=0;entryDx=0;entryDy=0;dashed=1;" parent="1" source="ML2cVZePJlJrn_aZk8Cd-121" edge="1">
          <mxGeometry width="50" height="50" relative="1" as="geometry">
            <mxPoint x="-3690" y="620" as="sourcePoint" />
            <mxPoint x="-3720" y="260" as="targetPoint" />
          </mxGeometry>
        </mxCell>
        <mxCell id="ML2cVZePJlJrn_aZk8Cd-143" value="" style="endArrow=classic;html=1;rounded=0;strokeWidth=5;strokeColor=#f000f0;entryX=0.75;entryY=0;entryDx=0;entryDy=0;exitX=0.75;exitY=0;exitDx=0;exitDy=0;" parent="1" source="ML2cVZePJlJrn_aZk8Cd-121" edge="1">
          <mxGeometry width="50" height="50" relative="1" as="geometry">
            <mxPoint x="-3510.5" y="260" as="sourcePoint" />
            <mxPoint x="-3660" y="260" as="targetPoint" />
          </mxGeometry>
        </mxCell>
        <mxCell id="ML2cVZePJlJrn_aZk8Cd-123" value="" style="endArrow=classic;html=1;rounded=0;strokeWidth=5;strokeColor=#808080;exitX=0.5;exitY=0;exitDx=0;exitDy=0;entryX=0.5;entryY=1;entryDx=0;entryDy=0;" parent="1" source="ML2cVZePJlJrn_aZk8Cd-121" target="ML2cVZePJlJrn_aZk8Cd-120" edge="1">
          <mxGeometry width="50" height="50" relative="1" as="geometry">
            <mxPoint x="-2750" y="270" as="sourcePoint" />
            <mxPoint x="-2700" y="220" as="targetPoint" />
          </mxGeometry>
        </mxCell>
        <mxCell id="ML2cVZePJlJrn_aZk8Cd-145" value="" style="endArrow=classic;html=1;rounded=0;strokeWidth=5;strokeColor=#f000f0;entryX=0.25;entryY=0;entryDx=0;entryDy=0;exitX=0.25;exitY=0;exitDx=0;exitDy=0;" parent="1" source="ML2cVZePJlJrn_aZk8Cd-128" edge="1">
          <mxGeometry width="50" height="50" relative="1" as="geometry">
            <mxPoint x="-2971" y="890" as="sourcePoint" />
            <mxPoint x="-3180" y="260" as="targetPoint" />
          </mxGeometry>
        </mxCell>
        <mxCell id="ML2cVZePJlJrn_aZk8Cd-130" value="" style="endArrow=classic;html=1;rounded=0;strokeWidth=5;strokeColor=#808080;exitX=0.5;exitY=0;exitDx=0;exitDy=0;entryX=0.5;entryY=1;entryDx=0;entryDy=0;" parent="1" source="ML2cVZePJlJrn_aZk8Cd-128" target="ML2cVZePJlJrn_aZk8Cd-120" edge="1">
          <mxGeometry width="50" height="50" relative="1" as="geometry">
            <mxPoint x="-3220" y="500" as="sourcePoint" />
            <mxPoint x="-3170" y="450" as="targetPoint" />
          </mxGeometry>
        </mxCell>
        <mxCell id="ML2cVZePJlJrn_aZk8Cd-148" value="" style="endArrow=classic;html=1;rounded=0;strokeWidth=5;strokeColor=#f000f0;entryX=0.75;entryY=1;entryDx=0;entryDy=0;exitX=0.75;exitY=1;exitDx=0;exitDy=0;" parent="1" target="ML2cVZePJlJrn_aZk8Cd-122" edge="1">
          <mxGeometry width="50" height="50" relative="1" as="geometry">
            <mxPoint x="-3480" y="800" as="sourcePoint" />
            <mxPoint x="-3390" y="850" as="targetPoint" />
          </mxGeometry>
        </mxCell>
        <mxCell id="ML2cVZePJlJrn_aZk8Cd-151" value="" style="endArrow=classic;html=1;rounded=0;strokeWidth=5;strokeColor=#f000f0;entryX=0.75;entryY=1;entryDx=0;entryDy=0;exitX=0.75;exitY=1;exitDx=0;exitDy=0;dashed=1;" parent="1" target="ML2cVZePJlJrn_aZk8Cd-129" edge="1">
          <mxGeometry width="50" height="50" relative="1" as="geometry">
            <mxPoint x="-3300" y="800" as="sourcePoint" />
            <mxPoint x="-3250" y="860" as="targetPoint" />
          </mxGeometry>
        </mxCell>
        <mxCell id="ML2cVZePJlJrn_aZk8Cd-153" value="" style="endArrow=classic;html=1;rounded=0;strokeWidth=5;strokeColor=#f000f0;exitX=0.5;exitY=0;exitDx=0;exitDy=0;entryX=0.5;entryY=0;entryDx=0;entryDy=0;" parent="1" source="ML2cVZePJlJrn_aZk8Cd-33" edge="1">
          <mxGeometry width="50" height="50" relative="1" as="geometry">
            <mxPoint x="-3170" y="630" as="sourcePoint" />
            <mxPoint x="-2900" y="260" as="targetPoint" />
          </mxGeometry>
        </mxCell>
        <mxCell id="ML2cVZePJlJrn_aZk8Cd-156" value="" style="endArrow=classic;html=1;rounded=0;strokeWidth=5;strokeColor=#f000f0;exitX=0.5;exitY=0;exitDx=0;exitDy=0;entryX=0.5;entryY=0;entryDx=0;entryDy=0;" parent="1" source="ML2cVZePJlJrn_aZk8Cd-38" edge="1">
          <mxGeometry width="50" height="50" relative="1" as="geometry">
            <mxPoint x="-2890" y="630" as="sourcePoint" />
            <mxPoint x="-2360" y="260" as="targetPoint" />
          </mxGeometry>
        </mxCell>
        <mxCell id="ML2cVZePJlJrn_aZk8Cd-157" value="&lt;font style=&quot;&quot;&gt;&lt;font size=&quot;1&quot; color=&quot;#ff8000&quot;&gt;&lt;b style=&quot;font-size: 24px;&quot;&gt;(10) Connect the Remote Legs &lt;br&gt;from the new Active Controller&lt;/b&gt;&lt;/font&gt;&lt;br&gt;&lt;/font&gt;" style="text;html=1;align=center;verticalAlign=middle;whiteSpace=wrap;rounded=0;" parent="1" vertex="1">
          <mxGeometry x="-3395" y="870" width="420" height="40" as="geometry" />
        </mxCell>
        <mxCell id="ML2cVZePJlJrn_aZk8Cd-170" value="" style="endArrow=classic;html=1;rounded=0;exitX=0;exitY=0.5;exitDx=0;exitDy=0;entryX=1;entryY=0.5;entryDx=0;entryDy=0;strokeColor=#ff8000;" parent="1" edge="1">
          <mxGeometry width="50" height="50" relative="1" as="geometry">
            <mxPoint x="-2630" y="290" as="sourcePoint" />
            <mxPoint x="-2570" y="290" as="targetPoint" />
          </mxGeometry>
        </mxCell>
        <mxCell id="ML2cVZePJlJrn_aZk8Cd-171" value="&lt;font style=&quot;font-size: 20px;&quot; color=&quot;#ff8000&quot;&gt;(11)&lt;/font&gt;" style="edgeLabel;html=1;align=center;verticalAlign=middle;resizable=0;points=[];" parent="ML2cVZePJlJrn_aZk8Cd-170" vertex="1" connectable="0">
          <mxGeometry x="-0.2" y="-1" relative="1" as="geometry">
            <mxPoint as="offset" />
          </mxGeometry>
        </mxCell>
        <mxCell id="ML2cVZePJlJrn_aZk8Cd-175" value="" style="endArrow=classic;html=1;rounded=0;exitX=0.459;exitY=1.05;exitDx=0;exitDy=0;strokeColor=#ff8000;exitPerimeter=0;" parent="1" source="ML2cVZePJlJrn_aZk8Cd-81" edge="1">
          <mxGeometry width="50" height="50" relative="1" as="geometry">
            <mxPoint x="-2940" y="50" as="sourcePoint" />
            <mxPoint x="-3120" y="270" as="targetPoint" />
          </mxGeometry>
        </mxCell>
        <mxCell id="ML2cVZePJlJrn_aZk8Cd-176" value="" style="endArrow=classic;html=1;rounded=0;exitX=0.454;exitY=1.025;exitDx=0;exitDy=0;strokeColor=#ff8000;exitPerimeter=0;" parent="1" source="ML2cVZePJlJrn_aZk8Cd-81" edge="1">
          <mxGeometry width="50" height="50" relative="1" as="geometry">
            <mxPoint x="-2930" y="60" as="sourcePoint" />
            <mxPoint x="-3730" y="280" as="targetPoint" />
          </mxGeometry>
        </mxCell>
        <mxCell id="ML2cVZePJlJrn_aZk8Cd-177" value="" style="endArrow=classic;html=1;rounded=0;exitX=0.5;exitY=1;exitDx=0;exitDy=0;strokeColor=#ff8000;" parent="1" source="ML2cVZePJlJrn_aZk8Cd-85" edge="1">
          <mxGeometry width="50" height="50" relative="1" as="geometry">
            <mxPoint x="-2920" y="70" as="sourcePoint" />
            <mxPoint x="-2560" y="280" as="targetPoint" />
          </mxGeometry>
        </mxCell>
        <mxCell id="ML2cVZePJlJrn_aZk8Cd-178" value="" style="endArrow=classic;html=1;rounded=0;exitX=0.5;exitY=1;exitDx=0;exitDy=0;strokeColor=#ff8000;" parent="1" source="ML2cVZePJlJrn_aZk8Cd-72" edge="1">
          <mxGeometry width="50" height="50" relative="1" as="geometry">
            <mxPoint x="-2910" y="80" as="sourcePoint" />
            <mxPoint x="-2640" y="280" as="targetPoint" />
          </mxGeometry>
        </mxCell>
        <mxCell id="ML2cVZePJlJrn_aZk8Cd-179" value="" style="endArrow=classic;html=1;rounded=0;exitX=0.5;exitY=0;exitDx=0;exitDy=0;strokeColor=#ff8000;" parent="1" source="ML2cVZePJlJrn_aZk8Cd-184" edge="1">
          <mxGeometry width="50" height="50" relative="1" as="geometry">
            <mxPoint x="-2940" y="50" as="sourcePoint" />
            <mxPoint x="-3300" y="790" as="targetPoint" />
          </mxGeometry>
        </mxCell>
        <mxCell id="ML2cVZePJlJrn_aZk8Cd-180" value="" style="endArrow=classic;html=1;rounded=0;exitX=0.5;exitY=0;exitDx=0;exitDy=0;strokeColor=#ff8000;" parent="1" source="ML2cVZePJlJrn_aZk8Cd-184" edge="1">
          <mxGeometry width="50" height="50" relative="1" as="geometry">
            <mxPoint x="-2930" y="60" as="sourcePoint" />
            <mxPoint x="-3550" y="760" as="targetPoint" />
          </mxGeometry>
        </mxCell>
        <mxCell id="ML2cVZePJlJrn_aZk8Cd-181" value="" style="endArrow=classic;html=1;rounded=0;exitX=0.5;exitY=1;exitDx=0;exitDy=0;strokeColor=#ff8000;" parent="1" source="ML2cVZePJlJrn_aZk8Cd-82" edge="1">
          <mxGeometry width="50" height="50" relative="1" as="geometry">
            <mxPoint x="-2920" y="70" as="sourcePoint" />
            <mxPoint x="-3190" y="270" as="targetPoint" />
          </mxGeometry>
        </mxCell>
        <mxCell id="ML2cVZePJlJrn_aZk8Cd-182" value="" style="endArrow=classic;html=1;rounded=0;exitX=0.471;exitY=1.1;exitDx=0;exitDy=0;strokeColor=#ff8000;exitPerimeter=0;" parent="1" source="ML2cVZePJlJrn_aZk8Cd-82" edge="1">
          <mxGeometry width="50" height="50" relative="1" as="geometry">
            <mxPoint x="-2910" y="80" as="sourcePoint" />
            <mxPoint x="-3650" y="270" as="targetPoint" />
          </mxGeometry>
        </mxCell>
        <mxCell id="ML2cVZePJlJrn_aZk8Cd-184" value="&lt;font style=&quot;&quot;&gt;&lt;font size=&quot;1&quot; color=&quot;#ff8000&quot;&gt;&lt;b style=&quot;font-size: 24px;&quot;&gt;(6) Remove nvmeof connections from the old Active Controller&lt;/b&gt;&lt;/font&gt;&lt;br&gt;&lt;/font&gt;" style="text;html=1;align=center;verticalAlign=middle;whiteSpace=wrap;rounded=0;" parent="1" vertex="1">
          <mxGeometry x="-3850" y="860" width="410" height="40" as="geometry" />
        </mxCell>
        <mxCell id="ML2cVZePJlJrn_aZk8Cd-185" value="" style="endArrow=classic;html=1;rounded=0;exitX=0.5;exitY=0;exitDx=0;exitDy=0;entryX=0.25;entryY=1;entryDx=0;entryDy=0;strokeColor=#ff8000;" parent="1" source="ML2cVZePJlJrn_aZk8Cd-83" target="ML2cVZePJlJrn_aZk8Cd-39" edge="1">
          <mxGeometry width="50" height="50" relative="1" as="geometry">
            <mxPoint x="-2940" y="50" as="sourcePoint" />
            <mxPoint x="-3190" y="125" as="targetPoint" />
          </mxGeometry>
        </mxCell>
        <mxCell id="ML2cVZePJlJrn_aZk8Cd-186" value="" style="endArrow=classic;html=1;rounded=0;exitX=0.5;exitY=0;exitDx=0;exitDy=0;entryX=0.75;entryY=1;entryDx=0;entryDy=0;strokeColor=#ff8000;" parent="1" source="ML2cVZePJlJrn_aZk8Cd-83" target="ML2cVZePJlJrn_aZk8Cd-34" edge="1">
          <mxGeometry width="50" height="50" relative="1" as="geometry">
            <mxPoint x="-2930" y="60" as="sourcePoint" />
            <mxPoint x="-3180" y="135" as="targetPoint" />
          </mxGeometry>
        </mxCell>
        <mxCell id="ML2cVZePJlJrn_aZk8Cd-187" value="" style="endArrow=classic;html=1;rounded=0;exitX=0.5;exitY=0;exitDx=0;exitDy=0;entryX=0.1;entryY=1;entryDx=0;entryDy=0;strokeColor=#ff8000;entryPerimeter=0;" parent="1" source="ML2cVZePJlJrn_aZk8Cd-83" target="ML2cVZePJlJrn_aZk8Cd-38" edge="1">
          <mxGeometry width="50" height="50" relative="1" as="geometry">
            <mxPoint x="-2920" y="70" as="sourcePoint" />
            <mxPoint x="-3170" y="145" as="targetPoint" />
          </mxGeometry>
        </mxCell>
        <mxCell id="ML2cVZePJlJrn_aZk8Cd-188" value="" style="endArrow=classic;html=1;rounded=0;exitX=0.5;exitY=0;exitDx=0;exitDy=0;entryX=0.917;entryY=1;entryDx=0;entryDy=0;strokeColor=#ff8000;entryPerimeter=0;" parent="1" source="ML2cVZePJlJrn_aZk8Cd-83" target="ML2cVZePJlJrn_aZk8Cd-33" edge="1">
          <mxGeometry width="50" height="50" relative="1" as="geometry">
            <mxPoint x="-2910" y="80" as="sourcePoint" />
            <mxPoint x="-3160" y="155" as="targetPoint" />
          </mxGeometry>
        </mxCell>
        <mxCell id="ML2cVZePJlJrn_aZk8Cd-189" value="" style="endArrow=classic;html=1;rounded=0;exitX=0.521;exitY=0.05;exitDx=0;exitDy=0;strokeColor=#ff8000;exitPerimeter=0;" parent="1" source="ML2cVZePJlJrn_aZk8Cd-157" edge="1">
          <mxGeometry width="50" height="50" relative="1" as="geometry">
            <mxPoint x="-2900" y="90" as="sourcePoint" />
            <mxPoint x="-3350" y="770" as="targetPoint" />
          </mxGeometry>
        </mxCell>
        <mxCell id="ML2cVZePJlJrn_aZk8Cd-190" value="" style="endArrow=classic;html=1;rounded=0;exitX=0.5;exitY=0;exitDx=0;exitDy=0;strokeColor=#ff8000;" parent="1" source="ML2cVZePJlJrn_aZk8Cd-157" edge="1">
          <mxGeometry width="50" height="50" relative="1" as="geometry">
            <mxPoint x="-3050" y="770" as="sourcePoint" />
            <mxPoint x="-3470" y="770" as="targetPoint" />
          </mxGeometry>
        </mxCell>
        <mxCell id="ML2cVZePJlJrn_aZk8Cd-194" value="" style="endArrow=classic;html=1;rounded=0;exitX=0.513;exitY=0.25;exitDx=0;exitDy=0;entryX=0.919;entryY=0.998;entryDx=0;entryDy=0;strokeColor=#ff8000;exitPerimeter=0;entryPerimeter=0;" parent="1" source="Cx0IqI09Y8lKUOxxlhVQ-1" target="ML2cVZePJlJrn_aZk8Cd-27" edge="1">
          <mxGeometry width="50" height="50" relative="1" as="geometry">
            <mxPoint x="-2910" y="80" as="sourcePoint" />
            <mxPoint x="-3160" y="155" as="targetPoint" />
          </mxGeometry>
        </mxCell>
        <mxCell id="ML2cVZePJlJrn_aZk8Cd-195" value="" style="endArrow=classic;html=1;rounded=0;exitX=0.5;exitY=1;exitDx=0;exitDy=0;entryX=1;entryY=0.25;entryDx=0;entryDy=0;strokeColor=#ff8000;" parent="1" source="ML2cVZePJlJrn_aZk8Cd-84" target="ML2cVZePJlJrn_aZk8Cd-30" edge="1">
          <mxGeometry width="50" height="50" relative="1" as="geometry">
            <mxPoint x="-2900" y="90" as="sourcePoint" />
            <mxPoint x="-3150" y="165" as="targetPoint" />
          </mxGeometry>
        </mxCell>
        <mxCell id="ML2cVZePJlJrn_aZk8Cd-196" value="" style="endArrow=classic;html=1;rounded=0;exitX=0.5;exitY=0;exitDx=0;exitDy=0;strokeColor=#ff8000;" parent="1" source="ML2cVZePJlJrn_aZk8Cd-83" edge="1">
          <mxGeometry width="50" height="50" relative="1" as="geometry">
            <mxPoint x="-2890" y="100" as="sourcePoint" />
            <mxPoint x="-2360" y="500" as="targetPoint" />
          </mxGeometry>
        </mxCell>
        <mxCell id="ML2cVZePJlJrn_aZk8Cd-197" value="" style="endArrow=classic;html=1;rounded=0;exitX=0.5;exitY=0;exitDx=0;exitDy=0;strokeColor=#ff8000;" parent="1" source="ML2cVZePJlJrn_aZk8Cd-83" edge="1">
          <mxGeometry width="50" height="50" relative="1" as="geometry">
            <mxPoint x="-2880" y="110" as="sourcePoint" />
            <mxPoint x="-2900" y="470" as="targetPoint" />
          </mxGeometry>
        </mxCell>
      </root>
    </mxGraphModel>
  </diagram>
</mxfile>
